<?xml version="1.0" standalone="no"?>
<!DOCTYPE svg PUBLIC "-//W3C//DTD SVG 20010904//EN"
 "http://www.w3.org/TR/2001/REC-SVG-20010904/DTD/svg10.dtd">
<svg version="1.0" xmlns="http://www.w3.org/2000/svg"
 width="553.000000pt" height="553.000000pt" viewBox="0 0 553.000000 553.000000"
 preserveAspectRatio="xMidYMid meet">
<metadata>
Created by potrace 1.14, written by Peter Selinger 2001-2017
</metadata>
<g transform="translate(0.000000,553.000000) scale(0.100000,-0.100000)"
fill="#000000" stroke="none">
<path d="M0 2765 l0 -2765 675 0 675 0 0 2765 0 2765 -675 0 -675 0 0 -2765z"/>
<path d="M3780 5523 c0 -5 -19 -28 -41 -53 -46 -50 -65 -72 -159 -179 -36 -41
-72 -82 -80 -91 -44 -50 -82 -92 -140 -160 -36 -41 -67 -77 -70 -80 -3 -3 -39
-43 -80 -90 -40 -47 -76 -87 -79 -90 -3 -3 -49 -54 -101 -115 -52 -60 -111
-128 -131 -150 -20 -22 -91 -103 -159 -180 -67 -77 -146 -167 -175 -200 -29
-33 -90 -103 -136 -155 -45 -52 -85 -97 -88 -100 -3 -3 -35 -39 -70 -80 -36
-41 -69 -79 -75 -85 -6 -5 -38 -41 -71 -80 -33 -38 -74 -86 -91 -105 -18 -19
-76 -86 -130 -147 l-99 -113 1 -547 1 -548 54 -53 c30 -29 520 -519 1091
-1088 l1036 -1034 768 2 c682 3 766 5 752 18 -22 21 -305 291 -353 335 -81 76
-512 484 -596 565 -26 25 -80 76 -120 114 -41 38 -139 131 -219 207 -80 75
-165 156 -190 179 -25 23 -112 106 -194 184 -82 77 -163 155 -180 171 -52 49
-346 327 -386 365 -20 19 -104 99 -186 176 -82 78 -169 161 -194 184 -122 114
-190 181 -190 188 0 4 19 28 43 53 23 24 85 91 137 148 52 58 110 120 129 140
44 48 192 209 211 231 8 9 60 66 116 126 56 60 113 123 128 139 82 89 205 223
231 251 17 17 68 74 115 125 47 51 92 100 100 109 8 9 60 65 115 125 55 60
111 121 125 135 14 14 61 65 105 114 44 49 94 103 110 121 17 17 68 73 115
124 47 51 99 108 115 125 17 18 73 79 125 136 168 183 205 223 225 245 11 11
43 46 70 76 28 30 100 108 160 173 61 65 114 124 118 132 7 12 -104 14 -753
14 -418 0 -760 -3 -760 -7z"/>
</g>
</svg>
