<svg height="69" preserveAspectRatio="xMidYMid meet" viewBox="0 0 546 69" width="546" xmlns="http://www.w3.org/2000/svg"><path d="m37.163 37.728c-3.144-2.358-11.007-7.86-11.007-18.864s7.863-18.864 18.868-18.864c11.007 0 18.87 7.86 18.87 18.863 0 11.004-7.862 16.506-11.007 18.864 3.932-4.716 8.65-9.432 8.65-18.864 0-9.431-7.077-15.719-16.512-15.719-9.434 0-16.51 6.288-16.51 15.719 0 9.432 4.717 14.148 8.648 18.865z" fill="#5c9733"/><g fill="#38601e"><path d="m36.498 40.871c2.238 1.572 10.886 1.572 17.175 0-3.93 3.93-18.082 4.717-17.175 0z"/><path d="m37.163 44.801c2.238 1.572 9.436 1.572 15.724 0-3.93 3.93-16.631 4.717-15.724 0z"/><path d="m37.949 48.731c2.238 1.571 7.862 1.571 14.151 0-3.931 3.93-15.058 4.716-14.151 0z"/><path d="m44.035 37.559c3.919-.887 3.938-5.36 1.553-10.129-2.323-4.644-5.029-7.099-4.66-9.76.371-2.661 9.912-2.367 9.098.519 4.4-3.957-10.317-5.103-10.724-.667-.285 3.097 2.848 5.915 5.177 10.278 2.323 4.35 2.92 8.096-.444 9.759z"/><path d="m53.739 64.484c33.698 9.256 45.154-2.181 29.141-14.781-.491.512-1.401 1.322-1.985 1.764 9.38 9.261 2.083 14.334-18.617 10.217-2.906 1.071-5.457 1.929-8.539 2.8z"/><path d="m78.257 46.513c-4.231-2.593-9.633-5.164-16.25-7.549 6.126 3.145 10.973 6.128 14.601 8.859.544-.353 1.157-.846 1.649-1.31z"/><path d="m22.29 27.541c-26.094-5.896-19.313 19.053 20.085 33.313 1.937-.429 5.126-1.232 8.154-2.104-1.941-.569-3.958-1.198-6.05-1.892-29.917-9.895-47.78-31.536-22.189-29.317z"/></g><path d="m14.622 46.592c-.504-.383-1.17-.955-1.643-1.398-25.93 11.971-12.32 32.34 34.68 19.945 43.973-11.594 50.7-32.682 15.791-29.281 29.73.297 22.063 15.58-16.9 25.066-35.221 8.576-53.492-1.985-31.928-14.332z" fill="#5c9733"/><path d="m20.518 43.629c2.737-1.225 5.873-2.451 9.427-3.666-3.943.779-7.487 1.71-10.637 2.754.412.351.744.591 1.21.912z" fill="#5c9733"/><path d="m97.911 67.969v-66.643h12.493v66.643z" fill="#5c9733"/><path d="m149.396 67.969v-38.249c0-.618-.342-.927-1.025-.927h-16.788c-.651 0-.976.309-.976.927v38.249h-12.493v-39.176c0-1.918 1.122-3.545 3.367-4.879 2.179-1.138 4.522-1.708 7.027-1.708h22.985c1.236 0 2.472.155 3.708.463 1.236.31 2.351.749 3.343 1.317.992.57 1.797 1.261 2.416 2.074.618.813.927 1.724.927 2.732v39.176h-12.491z" fill="#5c9733"/><path d="m200.783 67.969v-38.249c0-.618-.342-.927-1.025-.927h-16.788c-.651 0-.976.309-.976.927v38.249h-12.493v-39.176c0-1.918 1.123-3.545 3.367-4.879 2.179-1.138 4.522-1.708 7.027-1.708h22.985c1.236 0 2.472.155 3.708.463 1.236.31 2.351.749 3.343 1.317.992.57 1.797 1.261 2.416 2.074.618.813.927 1.724.927 2.732v39.176h-12.491z" fill="#5c9733"/><path d="m263.639 64.041c-.618.83-1.423 1.537-2.416 2.123-.993.585-2.107 1.033-3.343 1.341-1.237.31-2.473.464-3.709.464h-22.985c-2.603 0-4.945-.602-7.027-1.805-2.245-1.27-3.367-2.895-3.367-4.879v-32.492c0-1.918 1.123-3.545 3.367-4.879 2.18-1.138 4.522-1.708 7.027-1.708h22.985c1.236 0 2.472.155 3.709.463 1.236.31 2.35.749 3.343 1.317.992.57 1.797 1.261 2.416 2.074.618.813.927 1.724.927 2.732v32.492c0 1.009-.31 1.928-.927 2.757zm-11.566-34.321c0-.618-.341-.927-1.025-.927h-16.787c-.651 0-.976.309-.976.927v30.735c0 .554.325.83.976.83h16.787c.684 0 1.025-.276 1.025-.83z" fill="#5c9733"/><path d="m282.378 67.969c-2.602 0-4.944-.602-7.027-1.805-2.245-1.27-3.367-2.895-3.367-4.879v-53.275c0-1.918 1.122-3.545 3.367-4.878 2.083-1.203 4.426-1.805 7.027-1.805h41.676v6.683h-38.601c-.65 0-.977.277-.977.83v51.616c0 .554.326.83.977.83h26.108v-29.078c0-1.659-1.041-2.488-3.124-2.488h-10.492v-6.732h26.108v44.981z" fill="#38601e"/><path d="m340.842 67.969c-2.603 0-4.944-.602-7.027-1.805-2.245-1.27-3.367-2.895-3.367-4.879v-20.003c0-1.919 1.122-3.545 3.367-4.879 2.181-1.138 4.522-1.708 7.027-1.708h20.887v-4.975c0-.618-.342-.927-1.025-.927h-28.157v-6.586h31.281c1.235 0 2.473.155 3.709.463 1.235.31 2.35.749 3.344 1.317.991.57 1.796 1.261 2.414 2.074.619.813.928 1.724.928 2.732v39.176zm20.887-26.687h-17.812c-.65 0-.976.31-.976.927v18.246c0 .554.325.83.976.83h17.812z" fill="#38601e"/><path d="m431.758 67.969v-38.249c0-.618-.342-.927-1.025-.927h-10.493c-.649 0-.976.309-.976.927v38.249h-12.493v-38.249c0-.618-.342-.927-1.024-.927h-10.492c-.65 0-.977.309-.977.927v38.249h-12.493v-39.176c0-1.918 1.123-3.545 3.367-4.879 2.181-1.138 4.523-1.708 7.027-1.708h41.677c1.302-.032 2.57.106 3.806.415s2.335.756 3.295 1.341c.959.585 1.739 1.293 2.343 2.122.602.83.918 1.732.951 2.708v39.176h-12.493z" fill="#38601e"/><path d="m494.613 44.429c-.619.829-1.423 1.537-2.415 2.122-.993.586-2.108 1.041-3.344 1.366-1.235.326-2.474.488-3.709.488h-20.887v12.05c0 .554.326.83.977.83h28.108v6.684h-31.183c-2.602 0-4.944-.602-7.027-1.805-2.244-1.27-3.367-2.895-3.367-4.879v-32.492c0-1.918 1.123-3.545 3.367-4.879 2.181-1.138 4.523-1.708 7.027-1.708h22.985c1.235 0 2.474.155 3.709.463 1.235.31 2.351.749 3.344 1.317.992.57 1.796 1.261 2.415 2.074.618.813.927 1.724.927 2.732v12.879c0 1.011-.309 1.929-.927 2.758zm-11.566-14.709c0-.618-.341-.927-1.024-.927h-16.787c-.65 0-.977.309-.977.927v11.952h17.764c.684 0 1.024-.259 1.024-.779z" fill="#38601e"/><path d="m545.073 64.041c-.619.83-1.423 1.537-2.415 2.123-.993.585-2.108 1.033-3.344 1.341-1.235.31-2.473.464-3.709.464h-33.38v-6.684h30.257c.684 0 1.024-.276 1.024-.83v-11.27c0-.52-.341-.78-1.024-.78h-19.862c-2.504 0-4.847-.569-7.027-1.708-2.244-1.268-3.367-2.942-3.367-5.025v-12.879c0-1.918 1.123-3.545 3.367-4.879 2.181-1.138 4.523-1.708 7.027-1.708h33.38v6.586h-30.305c-.65 0-.977.309-.977.927v11.173c0 .521.326.779.977.779h19.91c1.236 0 2.474.164 3.709.488 1.235.326 2.351.781 3.344 1.366.992.585 1.796 1.293 2.415 2.122.619.83.927 1.748.927 2.757v12.88c0 1.009-.308 1.928-.927 2.757z" fill="#38601e"/></svg>