<?xml version="1.0" encoding="UTF-8" standalone="no"?>
<!DOCTYPE svg PUBLIC "-//W3C//DTD SVG 1.1//EN" "http://www.w3.org/Graphics/SVG/1.1/DTD/svg11.dtd">
<svg width="100%" height="100%" viewBox="0 0 1544 553" version="1.1" xmlns="http://www.w3.org/2000/svg" xmlns:xlink="http://www.w3.org/1999/xlink" xml:space="preserve" xmlns:serif="http://www.serif.com/" style="fill-rule:evenodd;clip-rule:evenodd;stroke-linejoin:round;stroke-miterlimit:2;">
    <g transform="matrix(2.66364,0,0,2.66364,-69.6683,552.124)">
        <g transform="matrix(288,0,0,288,0,0)">
            <path d="M0.091,-0L0.091,-0.72L0.21,-0.72L0.21,-0L0.091,-0ZM0.328,-0.35L0.578,-0L0.442,-0L0.25,-0.283L0.25,-0.426L0.425,-0.72L0.559,-0.72L0.328,-0.35Z" style="fill:white;fill-rule:nonzero;"/>
        </g>
        <g transform="matrix(288,0,0,288,187.875,0)">
            <rect x="0.092" y="-0.72" width="0.119" height="0.72" style="fill:white;fill-rule:nonzero;"/>
        </g>
        <g transform="matrix(288,0,0,288,274.5,0)">
            <path d="M0.21,-0.72L0.21,-0.089L0.541,-0.089L0.541,-0L0.091,-0L0.091,-0.72L0.21,-0.72Z" style="fill:white;fill-rule:nonzero;"/>
        </g>
        <g transform="matrix(288,0,0,288,438.75,0)">
            <path d="M0.434,-0.379C0.449,-0.377 0.465,-0.372 0.481,-0.364C0.498,-0.356 0.514,-0.345 0.529,-0.331C0.543,-0.317 0.556,-0.299 0.565,-0.279C0.575,-0.258 0.58,-0.235 0.58,-0.208C0.58,-0.175 0.575,-0.147 0.565,-0.124C0.556,-0.101 0.543,-0.081 0.529,-0.066C0.514,-0.051 0.498,-0.039 0.481,-0.03C0.464,-0.021 0.447,-0.014 0.431,-0.01C0.415,-0.005 0.401,-0.002 0.389,-0.001C0.376,-0 0.368,-0 0.364,-0L0.251,-0L0.251,-0.086L0.357,-0.086C0.392,-0.086 0.419,-0.097 0.438,-0.119C0.458,-0.141 0.468,-0.171 0.468,-0.208C0.468,-0.243 0.458,-0.273 0.438,-0.297C0.417,-0.321 0.388,-0.333 0.349,-0.333L0.251,-0.333L0.251,-0.412L0.298,-0.412C0.312,-0.412 0.327,-0.412 0.342,-0.413C0.357,-0.414 0.371,-0.417 0.384,-0.424C0.397,-0.43 0.407,-0.441 0.416,-0.457C0.424,-0.473 0.428,-0.495 0.428,-0.524C0.428,-0.536 0.426,-0.548 0.423,-0.561C0.42,-0.574 0.413,-0.585 0.403,-0.596C0.394,-0.606 0.38,-0.615 0.361,-0.621C0.343,-0.628 0.319,-0.631 0.289,-0.631L0.251,-0.631L0.251,-0.72L0.301,-0.72C0.331,-0.72 0.361,-0.716 0.39,-0.709C0.418,-0.702 0.444,-0.69 0.466,-0.675C0.488,-0.659 0.506,-0.639 0.519,-0.614C0.532,-0.589 0.538,-0.559 0.538,-0.524C0.538,-0.504 0.535,-0.486 0.528,-0.469C0.522,-0.453 0.514,-0.438 0.504,-0.426C0.494,-0.413 0.483,-0.403 0.47,-0.395C0.458,-0.387 0.445,-0.382 0.434,-0.379ZM0.094,-0.72L0.211,-0.72L0.211,-0L0.094,-0L0.094,-0.72Z" style="fill:white;fill-rule:nonzero;"/>
        </g>
    </g>
</svg>
