<?xml version="1.0" encoding="UTF-8" standalone="no"?>
<!DOCTYPE svg PUBLIC "-//W3C//DTD SVG 1.1//EN" "http://www.w3.org/Graphics/SVG/1.1/DTD/svg11.dtd">
<svg width="100%" height="100%" viewBox="0 0 76 77" version="1.1" xmlns="http://www.w3.org/2000/svg" xmlns:xlink="http://www.w3.org/1999/xlink" xml:space="preserve" xmlns:serif="http://www.serif.com/" style="fill-rule:evenodd;clip-rule:evenodd;stroke-linejoin:round;stroke-miterlimit:2;">
    <g id="g3019" transform="matrix(1.01883,0,0,-1.01883,-243.836,102.287)">
        <path id="path14" d="M239.33,95.036C239.33,97.996 241.79,100.397 244.825,100.397L308.201,100.397C311.237,100.397 313.697,97.996 313.697,95.036L313.697,30.919C313.697,27.958 311.237,25.558 308.201,25.558L244.825,25.558C241.79,25.558 239.33,27.958 239.33,30.919L239.33,95.036Z" style="fill:rgb(0,102,153);fill-rule:nonzero;"/>
        <path id="path28" d="M261.873,37.749L261.873,71.543L250.64,71.543L250.64,37.749L261.873,37.749ZM256.256,76.157C260.173,76.157 262.612,78.752 262.612,81.995C262.539,85.311 260.173,87.834 256.331,87.834C252.488,87.834 249.976,85.311 249.976,81.995C249.976,78.752 252.414,76.157 256.183,76.157L256.256,76.157Z" style="fill:white;"/>
        <path id="path30" d="M268.088,37.749L279.321,37.749L279.321,56.621C279.321,57.631 279.393,58.64 279.69,59.362C280.502,61.38 282.35,63.47 285.453,63.47C289.518,63.47 291.144,60.371 291.144,55.828L291.144,37.749L302.375,37.749L302.375,57.126C302.375,67.506 296.834,72.336 289.444,72.336C283.384,72.336 280.724,68.949 279.246,66.642L279.321,66.642L279.321,71.543L268.088,71.543C268.236,68.372 268.088,37.749 268.088,37.749L268.088,37.749Z" style="fill:white;"/>
    </g>
</svg>
