<?xml version="1.0" encoding="UTF-8" standalone="no"?>
<!DOCTYPE svg PUBLIC "-//W3C//DTD SVG 1.1//EN" "http://www.w3.org/Graphics/SVG/1.1/DTD/svg11.dtd">
<svg width="100%" height="100%" viewBox="0 0 36 36" version="1.1" xmlns="http://www.w3.org/2000/svg" xmlns:xlink="http://www.w3.org/1999/xlink" xml:space="preserve" xmlns:serif="http://www.serif.com/" style="fill-rule:evenodd;clip-rule:evenodd;stroke-linejoin:round;stroke-miterlimit:2;">
    <g transform="matrix(1,0,0,1,-6,-6)">
        <path d="M42,37C42,39.762 39.762,42 37,42L11,42C8.239,42 6,39.762 6,37L6,11C6,8.238 8.239,6 11,6L37,6C39.762,6 42,8.238 42,11L42,37Z" style="fill:rgb(0,96,100);fill-rule:nonzero;"/>
    </g>
    <g transform="matrix(1,0,0,1,-6,-6)">
        <path d="M16.647,30L12.609,30C12.366,30 12.184,29.89 12.083,29.727C11.976,29.554 11.97,29.33 12.083,29.112L16.374,21.588C16.378,21.578 16.378,21.575 16.374,21.565L13.644,16.869C13.529,16.647 13.513,16.427 13.62,16.254C13.721,16.087 13.926,16 14.169,16L18.208,16C18.827,16 19.131,16.398 19.331,16.755C19.331,16.755 22.092,21.538 22.108,21.565C21.945,21.852 17.749,29.224 17.749,29.224C17.543,29.595 17.251,30 16.647,30Z" style="fill:white;fill-rule:nonzero;"/>
    </g>
    <g transform="matrix(1,0,0,1,-6,-6)">
        <path d="M35.914,11.881L26.974,27.689C26.969,27.7 26.969,27.708 26.974,27.715L32.666,38.119C32.778,38.343 32.783,38.569 32.675,38.742C32.571,38.908 32.384,39 32.139,39L28.106,39C27.489,39 27.178,38.59 26.979,38.229C26.979,38.229 21.255,27.731 21.24,27.704C21.526,27.198 30.224,11.77 30.224,11.77C30.44,11.382 30.704,11 31.305,11L35.387,11C35.629,11 35.821,11.091 35.923,11.259C36.029,11.431 36.025,11.656 35.914,11.881Z" style="fill:rgb(205,220,57);fill-rule:nonzero;"/>
    </g>
</svg>
