<?xml version="1.0" encoding="UTF-8" standalone="no"?>
<!DOCTYPE svg PUBLIC "-//W3C//DTD SVG 1.1//EN" "http://www.w3.org/Graphics/SVG/1.1/DTD/svg11.dtd">
<svg width="100%" height="100%" viewBox="0 0 68 18" version="1.1" xmlns="http://www.w3.org/2000/svg" xmlns:xlink="http://www.w3.org/1999/xlink" xml:space="preserve" xmlns:serif="http://www.serif.com/" style="fill-rule:evenodd;clip-rule:evenodd;stroke-linejoin:round;stroke-miterlimit:2;">
    <g transform="matrix(1,0,0,1,-2.69922,-1)">
        <path d="M19.461,9.789C19.461,4.824 16.785,1 9.977,1L2.699,1L2.699,18.574L9.977,18.574C16.785,18.574 19.461,14.75 19.461,9.789ZM14.508,9.789C14.508,13.258 12.578,14.547 9.902,14.547L7.426,14.547L7.426,5.027L9.902,5.027C12.578,5.027 14.508,6.32 14.508,9.789Z" style="fill:rgb(207,206,206);fill-rule:nonzero;"/>
    </g>
    <g transform="matrix(1,0,0,1,-2.69922,-1)">
        <path d="M20.59,18.574L34.352,18.574L34.352,14.574L25.32,14.574L25.32,11.559L33.25,11.559L33.25,7.762L25.32,7.762L25.32,5.004L34.125,5.004L34.125,1L20.59,1L20.59,18.574Z" style="fill:rgb(207,206,206);fill-rule:nonzero;"/>
    </g>
    <g transform="matrix(1,0,0,1,-2.69922,-1)">
        <path d="M50.363,7.105C50.363,2.672 47.563,1 43.211,1L35.684,1L35.684,18.574L40.41,18.574L40.41,13.207L43.211,13.207C47.563,13.207 50.363,11.535 50.363,7.105ZM45.465,7.105C45.465,8.824 44.664,9.535 42.738,9.535L40.41,9.535L40.41,4.672L42.738,4.672C44.664,4.672 45.465,5.383 45.465,7.105Z" style="fill:rgb(207,206,206);fill-rule:nonzero;"/>
    </g>
    <g transform="matrix(1,0,0,1,-2.69922,-1)">
        <path d="M50.883,5.102L56.359,5.102L56.359,18.574L61.086,18.574L61.086,5.102L66.566,5.102L66.566,1L50.883,1L50.883,5.102Z" style="fill:rgb(207,206,206);fill-rule:nonzero;"/>
    </g>
    <g transform="matrix(1,0,0,1,-2.69922,-1.42398)">
        <path d="M64.602,16.113C64.602,17.703 65.875,18.992 67.441,18.992C69.016,18.992 70.301,17.703 70.301,16.113C70.301,14.523 69.016,13.223 67.441,13.223C65.875,13.223 64.602,14.523 64.602,16.113ZM65.148,16.113C65.148,14.801 66.172,13.727 67.441,13.727C68.715,13.727 69.75,14.801 69.75,16.113C69.75,17.426 68.715,18.488 67.441,18.488C66.172,18.488 65.148,17.426 65.148,16.113ZM66.109,17.539L67.008,17.539L67.008,16.559L67.52,16.559L68.055,17.539L69.027,17.539L68.379,16.379C68.676,16.254 68.902,15.914 68.902,15.531C68.902,14.867 68.477,14.547 67.758,14.547L66.109,14.547L66.109,17.539ZM67.992,15.547C67.992,15.785 67.844,15.887 67.559,15.887L67.008,15.887L67.008,15.258L67.559,15.258C67.844,15.258 67.992,15.332 67.992,15.547Z" style="fill:rgb(207,206,206);fill-rule:nonzero;"/>
    </g>
</svg>
