<?xml version="1.0" encoding="UTF-8"?>
<svg width="173px" height="41px" viewBox="0 0 173 41" version="1.1" xmlns="http://www.w3.org/2000/svg" xmlns:xlink="http://www.w3.org/1999/xlink">
    <g stroke="none" stroke-width="1" fill="none" fill-rule="evenodd">
        <g transform="translate(0.000000, -1.000000)">
            <path d="M172.663795,11.1690657 L164.247701,11.1690657 L157.500527,41.9939229 L165.916621,41.9939229 L172.663795,11.1690657 Z M156.789325,25.4426086 C157.659531,21.2605514 156.235894,19.3771514 152.360645,19.3771514 L136.56013,19.3771514 C132.684881,19.3771514 130.425552,21.2605514 129.552881,25.4426086 L127.255342,35.9174086 C126.382671,40.0994657 127.80754,41.9816371 131.682789,41.9816371 L153.636371,41.9816371 L154.460971,38.3892943 L151.283365,38.4077229 L136.597108,38.4077229 C135.482851,38.4077229 135.273311,37.9777229 135.523526,36.7786371 L136.401127,32.7562943 L155.20422,32.7562943 L156.789325,25.4426086 Z M148.519908,24.5801514 L147.516584,29.18238 L137.146841,29.18238 L138.148933,24.5801514 C138.397915,23.3835229 138.867531,22.9498371 139.981788,22.9498371 L147.445094,22.9498371 C148.559351,22.9498371 148.768891,23.3835229 148.519908,24.5801514 L148.519908,24.5801514 Z M127.867937,22.9375514 L128.634605,19.3673229 L116.962019,19.3771514 C113.08677,19.3771514 110.826208,21.2605514 109.95477,25.4438371 L106.217571,41.97918 L114.733505,41.97918 L117.558591,29.1688657 L118.550822,24.5801514 C118.799804,23.3822943 119.26942,22.9510657 120.383677,22.9510657 L127.867937,22.9375514 Z M105.389273,25.4266371 C106.259479,21.2605514 104.838307,19.3771514 100.960593,19.3771514 L80.3566923,19.3771514 L79.6011174,22.7618657 L83.6329048,22.75818 L96.3285365,22.75818 C97.1038328,22.75818 97.4538871,23.0444371 97.2862555,23.8061514 L96.9978305,25.23498 C96.8301988,25.9966943 96.3075825,26.28418 95.5335188,26.28418 L83.6587891,26.28418 C79.6849332,26.28418 77.6117242,27.9255514 76.276834,34.1335229 C74.8951055,40.3402657 76.3113464,41.9816371 80.2827372,41.9816371 L90.7510867,41.9816371 L94.4833558,41.9816371 L101.628655,41.9816371 C101.939266,40.7223514 105.389273,25.4266371 105.389273,25.4266371 L105.389273,25.4266371 Z M95.9982035,29.8580943 L94.4932165,36.7749514 C94.2442342,37.9752657 93.7770843,38.4077229 92.6615943,38.4077229 L85.1995211,38.4077229 C84.0827986,38.4077229 83.8757242,37.9752657 84.1222413,36.7749514 L85.247592,31.4920943 C85.5446451,30.2905514 85.9661894,29.8580943 87.0804468,29.8580943 L95.9982035,29.8580943 Z M74.4550725,25.44998 C75.3277431,21.2605514 73.9041067,19.3771514 70.0263924,19.3771514 L60.3814102,19.3771514 L54.2283429,19.3771514 L42.5976652,19.3771514 L39.6912283,19.3771514 L31.8125412,19.3771514 L26.86371,41.9939229 L35.2243381,41.9939229 L39.0490512,24.5850657 C39.2980335,23.3835229 39.7676486,22.9510657 40.881906,22.9510657 L47.3270961,22.9510657 C48.4401209,22.9510657 48.6496604,23.3835229 48.3747939,24.7312657 L45.7308978,36.88798 C45.5916156,37.5231514 45.4597289,38.08338 45.3327726,38.5834086 L44.5845932,41.9939229 L53.0031528,41.9939229 L56.8327962,24.5850657 C57.0817785,23.3835229 57.5513936,22.9510657 58.665651,22.9510657 L65.1108411,22.9510657 C66.2275636,22.9510657 66.4371032,23.3835229 66.1881209,24.5850657 L63.5171079,36.88798 C63.3605695,37.6042371 63.2114267,38.2258943 63.0684468,38.7726086 L62.3609426,41.9939229 L70.9113889,41.9939229 L74.4550725,25.44998 Z" fill="#FFFFFF"></path>
            <path d="M79.8367877,3.87110571 C78.0704926,-0.111922857 62.1035787,0.311934286 48.1618031,3.74456286 L48.8951915,6.71893429 C61.3282824,3.30473429 74.7338834,2.94599143 75.9566083,6.12676286 C76.9623981,8.74116286 73.1980817,12.7549057 69.7949129,15.1739629 L72.590417,15.1739629 C77.4443391,11.9661629 81.3356118,7.24967714 79.8367877,3.87110571 M44.2310876,6.65259143 C43.7466815,3.90550571 40.9055717,2.10810571 37.8931325,2.63762 C35.1000935,3.12904857 33.1341195,5.44367714 33.2450522,7.96470571 C14.054927,13.8913343 1.74879244,22.3389914 0.180943566,30.73382 C-0.897568831,36.5031914 8.09907344,42.8475343 21.996476,41.40642 L22.6226295,38.6679343 C13.0429743,38.9320771 8.78562361,33.3261057 10.1747476,28.1132771 C11.6316638,22.6596486 19.8517771,15.2378486 33.9956968,10.3026771 C35.1161171,12.0239057 37.3298409,12.9944771 39.6507995,12.5865914 C42.6669365,12.0570771 44.7167263,9.39967714 44.2310876,6.65259143" fill="#DA291C"></path>
        </g>
    </g>
</svg>