<?xml version="1.0" encoding="UTF-8" standalone="no"?>
<!DOCTYPE svg PUBLIC "-//W3C//DTD SVG 1.1//EN" "http://www.w3.org/Graphics/SVG/1.1/DTD/svg11.dtd">
<svg width="100%" height="100%" viewBox="0 0 601 59" version="1.1" xmlns="http://www.w3.org/2000/svg" xmlns:xlink="http://www.w3.org/1999/xlink" xml:space="preserve" xmlns:serif="http://www.serif.com/" style="fill-rule:evenodd;clip-rule:evenodd;stroke-linejoin:round;stroke-miterlimit:2;">
    <g transform="matrix(1,0,0,1,-20.5,-291.7)">
        <path d="M59.8,336.6L59.8,317.6C53.4,318.6 46.5,320.7 46.5,320.7L46.5,309.6C55.4,307.2 63.5,306.4 70.1,306.4C76.1,306.5 85.3,307.2 94.2,309.6L94.2,320.7C94.2,320.7 87.3,318.6 80.9,317.6L80.9,336.6L59.8,336.6M166.7,308.9L187.5,308.9L187.5,300L136.6,300L136.6,308.9L157.5,308.9L157.5,340.8L166.7,340.8L166.7,308.9ZM235.6,320.4C235.6,328.9 229.8,333.8 219.9,333.8C212.7,333.8 204.1,330.4 204.1,320.4C204.1,311.2 212,307.1 219.8,307.1C229.7,307.1 235.6,312.1 235.6,320.4ZM245.7,320.4C245.7,307.3 235.6,298.9 219.9,298.9C208,298.9 194.1,304.5 194.1,320.4C194.1,328.9 198.7,333.9 202.5,336.7C207.2,340.1 213.5,342 219.9,342C226.7,342 233.1,340 237.8,336.5C243,332.5 245.7,326.9 245.7,320.4ZM299.4,340.8L308.6,340.8L308.6,300L297.7,300L282.3,318.2L267.1,300L256.1,300L256.1,340.8L265.1,340.8L265.1,311.6L265.7,312.3L282.2,331.9L298.8,312.3L299.4,311.6L299.4,340.8ZM379.5,300L328.6,300L328.6,308.9L349.5,308.9L349.5,340.8L358.7,340.8L358.7,308.9L379.5,308.9L379.5,300ZM412.8,323.2L397.1,323.2L404.9,308L412.8,323.2ZM421.9,340.8L431.9,340.8L410.4,299.9L399.4,299.9L378.1,340.8L388,340.8L392.9,331.2L416.9,331.2L421.9,340.8ZM442.6,340.8L452.4,340.8L452.4,300L442.6,300L442.6,340.8ZM467.4,340.8L506.1,340.8L506.1,332.4L476.6,332.4L476.6,300L467.4,300L467.4,340.8ZM552.9,320.4C552.9,328.9 547.1,333.8 537.2,333.8C530,333.8 521.4,330.4 521.4,320.4C521.4,311.2 529.3,307.1 537.1,307.1C547.1,307.1 552.9,312.1 552.9,320.4ZM563,320.4C563,307.3 552.9,298.9 537.2,298.9C525.3,298.9 511.4,304.5 511.4,320.4C511.4,328.9 516,333.9 519.8,336.7C524.5,340.1 530.8,342 537.2,342C544.1,342 550.4,340 555.1,336.5C560.3,332.5 563,326.9 563,320.4ZM609.6,313.8C609.6,317.3 607.1,319.7 603.6,319.7L583,319.7L583,308.1L603.5,308.1C607.5,308.1 609.6,311 609.6,313.8ZM619.1,314C619.1,305.9 613,300 604.7,300L573.6,300L573.6,340.8L583.2,340.8L583.2,327.7L600.3,327.7L609.9,340.8L620.6,340.8L610.6,326.9L611.1,326.7C616.1,325 619.1,320.4 619.1,314ZM114.9,321C114.9,327.4 110.1,333.3 102.3,337.7C94.1,342.3 82.7,345.2 70.1,345.2C57.5,345.2 46.1,342.3 37.9,337.7C30.1,333.3 25.3,327.4 25.3,321C25.3,314.6 30.1,308.7 37.9,304.3C46.1,299.7 57.5,296.8 70.1,296.8C82.7,296.8 94.1,299.7 102.3,304.3C110.1,308.7 114.9,314.6 114.9,321ZM104.6,299.9C95.7,294.9 83.5,291.7 70.1,291.7C56.7,291.7 44.5,294.8 35.6,299.9C26.3,305.2 20.5,312.6 20.5,321C20.5,329.4 26.3,336.8 35.6,342.1C44.5,347.1 56.7,350.3 70.1,350.3C83.5,350.3 95.7,347.2 104.6,342.2C113.9,336.9 119.7,329.5 119.7,321.1C119.7,312.6 114,305.2 104.6,299.9Z" style="fill:rgb(213,213,213);fill-rule:nonzero;"/>
    </g>
</svg>
